<svg version="1.0" xmlns="http://www.w3.org/2000/svg"
 width="55" height="55" viewBox="0 0 200.000000 200.000000"
 preserveAspectRatio="xMidYMid meet">
<metadata>
Created by potrace 1.16, written by Peter Selinger 2001-2019
</metadata>
<g transform="translate(0.000000,200.000000) scale(0.062696,-0.062696)"
fill="none" stroke="tomato">
<path d="M0 1595 l0 -1595 1595 0 1595 0 0 1595 0 1595 -1595 0 -1595 0 0
-1595z m1945 1507 c281 -61 527 -190 732 -386 128 -122 214 -236 292 -387 113
-216 160 -401 168 -654 8 -238 -38 -461 -138 -673 -46 -99 -125 -232 -136
-232 -3 0 3 12 13 28 164 246 246 522 245 827 0 312 -89 596 -264 848 -80 114
-271 302 -387 378 -209 139 -476 232 -705 244 l-90 5 100 -15 c163 -23 288
-62 447 -140 94 -47 224 -132 254 -168 l19 -22 -25 21 c-46 39 -208 131 -297
169 -294 123 -654 145 -959 57 -593 -172 -976 -636 -1035 -1254 -23 -249 30
-540 140 -770 97 -205 312 -452 500 -576 254 -169 529 -253 831 -253 235 0
439 50 635 156 255 138 484 375 615 635 164 327 198 727 93 1095 -3 11 -3 17
1 14 23 -22 71 -262 81 -409 18 -258 -62 -586 -201 -820 -37 -64 -48 -88 -32
-75 13 11 1 -2 -25 -28 -27 -27 -47 -51 -44 -53 2 -3 -7 -18 -22 -33 -14 -16
-37 -40 -50 -55 -41 -46 -163 -151 -251 -215 -226 -167 -576 -281 -863 -281
-780 0 -1419 566 -1517 1344 -14 106 -9 318 10 421 77 428 316 792 668 1020
167 108 455 214 675 249 126 21 398 14 522 -12z m115 -542 c49 -35 51 -53 48
-372 -3 -280 -4 -297 -23 -318 -41 -46 -67 -50 -354 -50 -219 0 -278 3 -308
15 -68 27 -68 27 -71 350 -2 159 -1 299 2 311 3 12 20 36 37 53 l31 31 305 0
c288 0 306 -1 333 -20z m-735 -319 c-6 -4 -41 -16 -80 -25 -86 -21 -115 -46
-115 -97 0 -49 107 -488 126 -517 32 -49 43 -49 318 18 141 34 266 70 277 79
12 10 23 33 26 59 6 47 26 52 31 9 4 -32 -21 -82 -51 -102 -37 -24 -517 -137
-552 -130 -34 6 -67 31 -83 61 -18 35 -122 475 -122 519 0 45 24 86 63 107 65
34 196 50 162 19z m-106 -880 c10 -16 3 -47 -14 -61 -9 -7 -21 -7 -40 0 -15 6
-36 8 -46 5 -45 -14 -63 -112 -35 -180 16 -37 37 -46 96 -42 29 2 35 -2 44
-26 12 -34 3 -42 -60 -52 -80 -12 -147 23 -184 95 -8 14 -13 57 -13 97 0 61 4
78 25 111 37 55 79 73 156 69 38 -2 67 -8 71 -16z m158 11 c7 -4 13 -36 15
-72 l3 -65 50 0 50 0 3 60 c4 73 14 87 61 83 l36 -3 0 -180 0 -180 -45 0 -45
0 -5 60 -5 60 -52 3 -52 3 -3 -63 -3 -63 -46 -3 c-58 -4 -59 -2 -59 180 0 164
7 188 52 188 18 0 38 -4 45 -8z m541 -1 c8 -5 12 -22 10 -42 l-3 -34 -70 -5
c-67 -5 -70 -6 -70 -30 0 -22 5 -25 40 -28 43 -4 55 -14 55 -50 0 -24 -32 -42
-76 -42 -17 0 -24 -5 -24 -20 0 -22 19 -28 95 -32 50 -3 50 -3 50 -38 l0 -35
-119 -3 c-89 -2 -121 1 -128 10 -13 21 -10 332 4 346 14 14 215 17 236 3z
m277 -5 c16 -11 17 -18 9 -37 -10 -21 -18 -24 -65 -24 -74 0 -79 -24 -13 -62
27 -16 61 -40 76 -55 62 -59 16 -156 -85 -178 -69 -16 -141 -3 -145 25 -4 37
13 49 71 46 38 -1 57 3 67 14 17 20 1 39 -62 71 -57 29 -83 71 -75 121 7 42
23 62 62 79 40 18 136 18 160 0z m-1147 -445 c7 -4 21 -34 31 -67 10 -32 23
-60 28 -61 5 -2 18 24 28 57 20 65 39 83 83 78 l27 -3 3 -142 3 -143 -35 0
-35 0 -3 63 c-3 60 -4 61 -16 32 -21 -51 -28 -60 -53 -60 -19 0 -29 10 -46 45
l-22 45 -3 -60 -3 -60 -35 0 -35 0 -3 129 c-2 86 1 133 9 142 13 15 57 18 77
5z m447 -7 c43 -20 65 -67 65 -136 0 -115 -96 -179 -196 -132 -89 43 -96 202
-12 262 39 26 95 29 143 6z m162 8 c6 -4 22 -47 34 -95 12 -48 25 -87 29 -87
4 0 16 33 25 73 21 87 38 117 68 117 49 0 49 -9 4 -151 l-43 -134 -53 0 -54 0
-40 127 c-22 69 -37 133 -34 142 7 17 43 21 64 8z m312 -6 c8 -9 11 -56 9
-142 l-3 -129 -40 0 -40 0 -3 129 c-3 137 3 156 43 156 12 0 28 -6 34 -14z
m245 8 c10 -4 16 -18 16 -35 0 -28 -1 -29 -54 -29 -30 0 -57 -4 -60 -9 -12
-19 7 -40 37 -43 28 -3 32 -7 32 -33 0 -27 -4 -30 -33 -33 -25 -3 -32 -8 -30
-20 2 -13 16 -18 56 -20 50 -3 52 -4 52 -33 l0 -29 -100 0 -100 0 0 139 c0
102 3 141 13 144 18 8 152 8 171 1z"/>
<path d="M171 1923 c-32 -139 -44 -266 -37 -400 28 -572 366 -1059 891 -1284
142 -60 368 -111 482 -108 44 2 42 2 -20 10 -349 40 -642 183 -893 433 -269
270 -412 587 -440 981 -7 95 7 262 32 379 21 101 9 92 -15 -11z"/>
<path d="M1419 2537 c-36 -28 -39 -51 -39 -339 0 -309 1 -313 58 -337 20 -8
110 -11 310 -9 278 3 282 3 304 26 23 22 23 26 26 305 2 155 0 292 -3 304 -3
12 -15 32 -27 43 -21 19 -34 20 -317 20 -217 -1 -300 -4 -312 -13z m343 -258
c53 -33 101 -66 107 -73 9 -10 -15 -29 -111 -89 -67 -41 -126 -73 -130 -71
-10 6 -11 288 -1 298 10 10 27 2 135 -65z"/>
<path d="M1650 2201 l0 -112 23 12 c52 28 147 91 147 99 0 4 -26 23 -57 42
-32 19 -70 42 -85 52 l-28 18 0 -111z"/>
</g>
</svg>
