<?xml version="1.0" standalone="no"?>
<!DOCTYPE svg PUBLIC "-//W3C//DTD SVG 20010904//EN"
 "http://www.w3.org/TR/2001/REC-SVG-20010904/DTD/svg10.dtd">
<svg version="1.0" xmlns="http://www.w3.org/2000/svg"
 width="58px" height="58px" viewBox="0 0 360.000000 330.000000"
 preserveAspectRatio="xMidYMid meet">

<g transform="translate(0.000000,330.000000) scale(0.100000,-0.100000)"
fill="#000000" stroke="none">
<path d="M1755 3201 c-22 -10 -121 -65 -220 -123 -403 -234 -764 -444 -830
-481 -134 -76 -173 -106 -194 -151 -21 -42 -21 -56 -21 -751 0 -688 1 -710 20
-750 25 -52 29 -55 305 -215 127 -73 336 -195 465 -270 482 -280 488 -283 538
-288 55 -5 80 7 402 195 113 66 360 209 549 319 289 167 347 205 370 238 l26
40 3 708 c2 477 -1 722 -8 749 -15 54 -59 94 -186 166 -106 59 -253 145 -534
308 -510 297 -562 325 -604 325 -23 0 -59 -9 -81 -19z m195 -1047 c38 -23 60
-64 60 -114 0 -34 -6 -48 -34 -76 -28 -28 -42 -34 -75 -34 -56 0 -95 22 -115
64 -20 43 -20 69 -1 107 32 61 109 85 165 53z m-248 -114 c24 -25 29 -36 23
-58 -8 -34 -32 -59 -66 -67 -19 -5 -34 0 -57 20 -40 34 -42 72 -6 109 35 34
68 33 106 -4z m316 -182 c7 -7 12 -23 12 -36 0 -21 4 -23 25 -18 14 4 45 9 70
13 l45 6 0 -92 c0 -102 5 -97 -82 -77 l-58 14 0 -32 c0 -18 -5 -37 -12 -44
-17 -17 -449 -17 -466 0 -7 7 -12 43 -12 90 0 68 -2 78 -18 78 -25 0 -41 18
-35 41 5 17 21 24 46 20 4 0 7 5 7 12 0 34 22 37 245 37 159 0 224 -3 233 -12z
m-900 -460 c7 -7 12 -18 12 -26 0 -11 -12 -12 -55 -7 l-55 7 0 -52 0 -53 55 7
c42 5 55 3 55 -7 0 -26 -25 -37 -80 -37 -31 0 -61 5 -68 12 -7 7 -12 40 -12
78 0 38 5 71 12 78 7 7 37 12 68 12 31 0 61 -5 68 -12z m102 -23 c0 -33 2 -35
35 -35 33 0 35 2 35 35 0 28 4 35 20 35 19 0 20 -7 20 -90 0 -83 -1 -90 -20
-90 -16 0 -20 7 -20 35 0 33 -2 35 -35 35 -33 0 -35 -2 -35 -35 0 -31 -3 -35
-25 -35 -25 0 -25 1 -25 90 0 89 0 90 25 90 22 0 25 -4 25 -35z m310 15 c0
-18 -7 -20 -56 -20 -70 0 -71 -23 -1 -28 38 -3 47 -7 47 -22 0 -15 -9 -19 -45
-22 -63 -4 -61 -22 3 -26 44 -3 52 -6 52 -23 0 -17 -7 -19 -63 -19 -36 0 -68
5 -75 12 -7 7 -12 43 -12 90 l0 78 75 0 c68 0 75 -2 75 -20z m198 8 c28 -28
14 -38 -48 -31 -54 5 -60 4 -54 -11 4 -11 18 -16 48 -16 50 0 66 -13 66 -56 0
-45 -18 -55 -92 -52 -56 3 -63 5 -66 25 -3 21 0 22 50 20 65 -2 81 17 18 21
-55 4 -70 16 -70 56 0 45 16 56 80 56 31 0 61 -5 68 -12z m125 -23 c9 -19 20
-35 25 -35 5 0 16 16 25 35 13 26 23 35 42 35 25 0 25 -1 25 -90 0 -89 0 -90
-25 -90 -23 0 -25 4 -26 43 0 41 0 41 -16 20 -19 -28 -40 -29 -48 -3 -11 34
-23 22 -20 -20 2 -36 0 -40 -21 -40 -23 0 -24 2 -24 90 0 87 1 90 23 90 17 0
28 -10 40 -35z m315 23 c16 -16 16 -140 0 -156 -7 -7 -37 -12 -67 -12 -76 0
-91 16 -91 95 0 34 5 66 12 73 16 16 130 16 146 0z m107 -43 c11 -30 21 -52
24 -49 4 3 13 26 22 52 12 37 21 47 37 47 12 0 23 -4 24 -8 1 -5 -11 -44 -27
-88 -27 -72 -31 -79 -56 -79 -25 0 -30 7 -58 81 -17 44 -31 85 -31 90 0 5 11
9 23 9 20 0 27 -9 42 -55z m210 -35 l0 -90 -37 0 c-37 0 -53 20 -28 35 6 3 10
28 10 55 0 27 -4 52 -10 55 -25 15 -9 35 28 35 l37 0 0 -90z m198 84 c3 -3 3
-12 0 -20 -3 -9 -21 -14 -54 -14 -37 0 -49 -4 -49 -15 0 -11 12 -15 45 -15 38
0 45 -3 45 -20 0 -17 -7 -20 -45 -20 -33 0 -45 -4 -45 -14 0 -11 15 -16 52
-18 40 -2 52 -7 54 -20 2 -16 -7 -18 -65 -18 -39 0 -72 5 -79 12 -7 7 -12 43
-12 90 l0 78 73 0 c41 0 76 -3 80 -6z"/>
<path d="M1863 2064 c-6 -17 6 -45 23 -51 21 -7 47 23 40 45 -9 27 -53 30 -63
6z"/>
<path d="M1632 1993 c4 -21 33 -25 33 -3 0 8 -8 16 -18 18 -14 3 -18 -1 -15
-15z"/>
<path d="M1607 1734 c-11 -12 -8 -59 5 -72 14 -14 96 -16 116 -3 8 5 12 22 10
42 l-3 34 -60 3 c-34 2 -64 0 -68 -4z"/>
<path d="M2060 1320 l0 -50 35 0 35 0 0 50 0 50 -35 0 -35 0 0 -50z"/>
</g>
</svg>
